<?xml version="1.0" standalone="no"?>
<!DOCTYPE svg PUBLIC "-//W3C//DTD SVG 20010904//EN"
 "http://www.w3.org/TR/2001/REC-SVG-20010904/DTD/svg10.dtd">
<svg version="1.0" xmlns="http://www.w3.org/2000/svg"
 width="512.000000pt" height="512.000000pt" viewBox="0 0 512.000000 512.000000"
 preserveAspectRatio="xMidYMid meet">
<metadata>
Created by potrace 1.14, written by Peter Selinger 2001-2017
</metadata>
<g transform="translate(0.000000,512.000000) scale(0.100000,-0.100000)"
fill="#000000" stroke="none">
<path d="M2350 4470 c-23 -7 -58 -23 -245 -110 -33 -16 -91 -43 -130 -60 -96
-44 -573 -264 -665 -307 -41 -19 -154 -71 -250 -115 -96 -44 -226 -105 -289
-134 -62 -30 -114 -54 -116 -54 -2 0 -55 -25 -120 -55 -64 -30 -118 -55 -121
-55 -2 0 -46 -20 -96 -45 -104 -51 -144 -87 -154 -140 -15 -83 24 -152 111
-190 27 -13 99 -46 159 -74 59 -28 110 -51 112 -51 2 0 61 -27 131 -61 70 -33
145 -68 165 -76 l38 -15 1 -602 c0 -330 3 -614 5 -631 8 -53 63 -151 114 -204
63 -65 162 -129 276 -179 83 -36 227 -85 284 -96 14 -3 43 -10 65 -15 51 -13
205 -40 265 -47 25 -3 56 -7 70 -9 170 -26 748 -27 879 0 13 2 47 7 75 10 57
6 77 9 191 31 410 81 682 228 777 421 l33 68 3 626 3 627 37 15 c39 16 175 78
278 128 33 16 66 29 72 29 9 0 12 -187 12 -762 l0 -763 -63 -32 c-239 -124
-327 -430 -191 -663 92 -158 265 -250 444 -237 122 9 206 46 298 131 195 181
200 494 10 684 -40 41 -147 112 -169 112 -5 0 -9 346 -9 915 0 987 2 942 -52
992 -12 12 -81 48 -153 81 -184 84 -222 101 -380 174 -77 36 -165 77 -195 90
-30 14 -93 44 -140 65 -73 35 -204 95 -500 231 -36 16 -128 59 -205 95 -77 35
-162 74 -188 86 -27 12 -94 44 -150 70 -240 113 -265 121 -327 101z m387 -481
c180 -83 364 -168 408 -189 44 -21 103 -48 130 -60 28 -13 86 -39 130 -60 44
-21 103 -48 130 -60 28 -13 92 -42 143 -66 52 -24 95 -44 97 -44 2 0 59 -26
126 -58 68 -32 139 -65 157 -73 17 -8 32 -16 32 -19 0 -3 -35 -21 -78 -40 -42
-19 -131 -60 -197 -91 -186 -87 -276 -129 -281 -129 -2 0 -65 -29 -139 -65
-75 -36 -138 -65 -140 -65 -3 0 -57 -25 -120 -55 -64 -30 -118 -55 -120 -55
-1 0 -55 -25 -120 -55 -64 -30 -118 -55 -119 -55 -2 0 -64 -29 -137 -64 -74
-35 -158 -74 -187 -86 l-52 -23 -63 28 c-34 16 -102 47 -152 71 -49 23 -115
53 -145 67 -30 14 -91 42 -135 62 -44 20 -163 75 -265 122 -102 47 -225 105
-275 128 -49 22 -217 99 -372 171 -155 71 -282 131 -283 134 0 3 15 11 33 19
17 8 79 36 137 64 58 27 148 68 200 92 140 63 495 227 718 331 52 24 95 44 97
44 1 0 60 27 129 60 70 33 129 60 131 60 2 0 45 20 94 44 82 40 136 63 153 65
4 1 154 -67 335 -150z m-1412 -1269 c28 -12 97 -45 154 -71 57 -27 105 -49
106 -49 2 0 47 -21 102 -46 135 -63 198 -92 343 -159 69 -32 168 -78 220 -103
134 -64 170 -63 313 6 59 29 109 52 111 52 2 0 50 22 107 49 106 49 175 81
277 127 31 14 89 41 127 59 207 98 266 125 270 125 3 0 36 15 75 34 l70 34 0
-517 0 -518 -27 -28 c-97 -98 -414 -210 -683 -241 -30 -3 -64 -8 -75 -10 -94
-19 -547 -26 -716 -12 -392 34 -741 136 -862 255 l-37 35 0 519 0 519 38 -19
c20 -10 60 -29 87 -41z m3244 -1468 c89 -66 94 -191 9 -255 -67 -51 -149 -46
-208 13 -81 81 -58 208 48 257 36 17 120 8 151 -15z"/>
</g>
</svg>
